<?xml version="1.0" encoding="utf-8"?>
<!-- Generator: Adobe Illustrator 21.1.0, SVG Export Plug-In . SVG Version: 6.00 Build 0)  -->
<svg version="1.1" id="Ebene_1" xmlns="http://www.w3.org/2000/svg" xmlns:xlink="http://www.w3.org/1999/xlink" x="0px" y="0px"
	 viewBox="0 0 313.3 130.1" style="enable-background:new 0 0 313.3 130.1;" xml:space="preserve">
<style type="text/css">
	.st0{fill:#95C11F;}
	.st1{fill:#36A9E1;}
	.st2{fill:#29235C;}
</style>
<g>
	<path class="st0" d="M291.4,59.5c-0.4-0.2-1-0.1-1.3,0.2c-0.3,0.3-0.4,0.8-0.1,1.2c7.5,10,11.2,21.3,11.2,33.5
		c0,11.6-2.7,21.2-8.1,28.3c-0.3,0.4-0.2,0.9,0.1,1.2c0.2,0.2,0.5,0.3,0.8,0.3c0.2,0,0.4,0,0.5-0.1c12.4-6.3,18.6-16.7,18.6-30.8
		C313.3,77.6,305.9,66.2,291.4,59.5z"/>
	<path class="st0" d="M55.1,106.3h-3.9c-1.3,0-2.4,0.4-3.2,1.3c-0.8,0.8-1.2,1.9-1.2,3.2v5.9c0,1.3,0.4,2.3,1.2,3.1
		c0.8,0.8,1.9,1.2,3.2,1.2h3.9c1.3,0,2.3-0.4,3.1-1.3c0.8-0.9,1.2-1.9,1.2-3.2v-5.8c0-1.3-0.4-2.3-1.2-3.2
		C57.4,106.7,56.3,106.3,55.1,106.3z M55.2,116.7c0,0.7-0.2,1.2-0.6,1.6c-0.4,0.4-0.9,0.6-1.5,0.6c-0.6,0-1.1-0.2-1.5-0.6
		c-0.4-0.4-0.6-0.9-0.6-1.6v-6.2c0-0.6,0.2-1.1,0.6-1.5c0.4-0.4,0.9-0.6,1.5-0.6c0.6,0,1.1,0.2,1.5,0.6c0.4,0.4,0.6,0.9,0.6,1.6
		V116.7z"/>
	<path class="st0" d="M71.7,106.3h-2.1c-1.2,0-1.9,0.7-2.2,2v-6.1h-4.2v18.9h8c1.5,0,2.6-0.4,3.4-1.3c0.8-0.8,1.2-1.9,1.2-3.1v-6.3
		c0-1.1-0.4-2.1-1.3-2.9C73.8,106.7,72.9,106.3,71.7,106.3z M71.7,116.7c0,0.7-0.2,1.2-0.6,1.6c-0.4,0.4-0.9,0.6-1.5,0.6h-2.1v-8.4
		c0-0.6,0.2-1.1,0.6-1.5c0.4-0.4,0.9-0.6,1.5-0.6c0.6,0,1.1,0.2,1.6,0.6c0.4,0.4,0.6,1,0.6,1.6V116.7z"/>
	<path class="st0" d="M88.2,106.3h-4c-1.3,0-2.3,0.4-3.1,1.3c-0.8,0.9-1.2,1.9-1.2,3.1v6c0,1.3,0.4,2.3,1.3,3.1
		c0.8,0.8,1.9,1.2,3.1,1.2h4.1c2.5,0,3.9-1.4,4.3-4.1h-2.1c0,1.4-0.7,2-2.1,2h-2c-0.7,0-1.2-0.2-1.6-0.6c-0.4-0.4-0.6-1-0.6-1.6v-2
		h8.5v-4.1c0-1.2-0.4-2.3-1.2-3.1C90.4,106.7,89.4,106.3,88.2,106.3z M88.3,112.7H84v-2c0-0.6,0.2-1.1,0.6-1.6
		c0.4-0.4,0.9-0.7,1.5-0.7c0.6,0,1.1,0.2,1.5,0.7c0.4,0.4,0.6,1,0.6,1.6V112.7z"/>
	<path class="st0" d="M100.6,110.5v-4.2h-4.2v14.8h4.2v-8.3c0-0.6,0.2-1.2,0.6-1.6c0.4-0.4,1-0.6,1.6-0.6h4.1v-4.2h-2.1
		C102.3,106.3,100.9,107.7,100.6,110.5z"/>
	<path class="st0" d="M115.2,108.4c1.2,0,1.8,0.7,2,2h2.1c-0.2-2.8-1.6-4.1-4.2-4.1H113c-1.2,0-2.2,0.4-3,1.2
		c-0.8,0.8-1.2,1.8-1.2,3c0,1,0.2,1.7,0.7,2.2c0.4,0.5,1.1,1,2,1.5l1.8,1c0.5,0.3,1,0.6,1.3,0.9c0.4,0.3,0.5,0.6,0.5,1
		c0,0.6-0.2,1-0.6,1.3c-0.4,0.3-0.9,0.4-1.6,0.4c-1.2,0-1.9-0.7-2-2h-2.1c0,2.8,1.4,4.1,4.2,4.1h2.1c1.2,0,2.2-0.4,3-1.2
		c0.8-0.8,1.2-1.8,1.2-3c0-0.8-0.2-1.5-0.5-2c-0.3-0.5-0.9-1-1.7-1.5l-2-1.1c-0.6-0.4-1.1-0.7-1.5-1c-0.4-0.3-0.6-0.7-0.6-1
		c0-0.5,0.2-1,0.5-1.3C113.9,108.5,114.4,108.4,115.2,108.4z"/>
	<path class="st0" d="M131.7,106.3h-2.1c-1.2,0-1.9,0.7-2.2,2v-6.1h-4.2v18.9h8c1.5,0,2.6-0.4,3.4-1.3c0.8-0.8,1.2-1.9,1.2-3.1v-6.3
		c0-1.1-0.4-2.1-1.3-2.9C133.8,106.7,132.8,106.3,131.7,106.3z M131.6,116.7c0,0.7-0.2,1.2-0.6,1.6c-0.4,0.4-0.9,0.6-1.5,0.6h-2.1
		v-8.4c0-0.6,0.2-1.1,0.6-1.5c0.4-0.4,0.9-0.6,1.5-0.6c0.6,0,1.1,0.2,1.6,0.6c0.4,0.4,0.6,1,0.6,1.6V116.7z"/>
	<path class="st0" d="M148.1,106.3h-4c-1.3,0-2.3,0.4-3.1,1.3c-0.8,0.9-1.2,1.9-1.2,3.1v6c0,1.3,0.4,2.3,1.3,3.1
		c0.8,0.8,1.9,1.2,3.1,1.2h4.1c2.5,0,3.9-1.4,4.3-4.1h-2.1c0,1.4-0.7,2-2.1,2h-2c-0.7,0-1.2-0.2-1.6-0.6c-0.4-0.4-0.6-1-0.6-1.6v-2
		h8.5v-4.1c0-1.2-0.4-2.3-1.2-3.1C150.4,106.7,149.3,106.3,148.1,106.3z M148.2,112.7H144v-2c0-0.6,0.2-1.1,0.6-1.6
		c0.4-0.4,0.9-0.7,1.5-0.7c0.6,0,1.1,0.2,1.5,0.7c0.4,0.4,0.6,1,0.6,1.6V112.7z"/>
	<path class="st0" d="M160.5,110.5v-4.2h-4.2v14.8h4.2v-8.3c0-0.6,0.2-1.2,0.6-1.6c0.4-0.4,1-0.6,1.6-0.6h4.1v-4.2h-2.1
		C162.3,106.3,160.8,107.7,160.5,110.5z"/>
	<path class="st0" d="M169.9,107.5c-0.8,0.8-1.2,1.9-1.2,3.1v6.3c0,1.2,0.4,2.1,1.3,3c0.8,0.8,1.8,1.2,3,1.2h2.1
		c1.2,0,1.9-0.7,2.1-2.1v4.1c0,0.6-0.2,1.1-0.6,1.6c-0.4,0.4-0.9,0.6-1.6,0.6h-2.1c-1.3,0-2-0.7-2.1-2.2h-2.1
		c0.3,2.8,1.7,4.3,4.2,4.3h4.1c1.3,0,2.3-0.4,3.2-1.2c0.8-0.8,1.3-1.9,1.3-3.1v-16.7h-8.1C171.8,106.3,170.7,106.7,169.9,107.5z
		 M175.1,108.4h2.1v8.4c0,0.6-0.2,1.1-0.6,1.6c-0.4,0.4-0.9,0.6-1.5,0.6c-0.6,0-1.1-0.2-1.5-0.6c-0.4-0.4-0.7-0.9-0.7-1.7v-6.1
		c0-0.6,0.2-1.2,0.6-1.6C173.9,108.6,174.4,108.4,175.1,108.4z"/>
</g>
<g>
	<path class="st1" d="M277.9,90.6c-4.9-4.9-15.2-8.8-31.4-11.9c-7.6-1.5-12.7-2.8-15.2-4.1c-2.4-1.2-3.6-2.9-3.6-5.1
		c0-3,1.7-5.3,5.1-7c3.7-1.7,8-2.5,12.8-2.5c6.2,0,12.3,1.7,18.4,4.9c6.1,3.3,10.6,8.3,13.3,14.9c0.2,0.4,0.6,0.6,1,0.6h1.7
		c0,0,0,0,0,0c0.6,0,1.1-0.4,1.1-1c0-0.1,0-0.1,0-0.2c0-4-0.1-7.4-0.4-10.1c-0.3-3-0.5-5.8-0.5-8.5c0,0,0-0.4,0.2-2.9
		c0-0.4-0.2-0.8-0.7-1c-10.3-3.6-20.5-5.5-30.4-5.5c-10.4,0-18.4,1.7-23.8,4.9c-5.6,3.4-8.5,8-8.5,13.6c0,5,2,8.9,5.8,11.5
		c3.6,2.4,10.1,4.7,19.3,6.6c15.1,3.2,24.8,7,28.8,11.5c4.1,4.5,6.2,9.6,6.2,15c0,1.8-0.3,4.1-1,6.8c-0.1,0.5,0.2,0.9,0.6,1.1
		c0.1,0.1,0.3,0.1,0.4,0.1c0.3,0,0.7-0.1,0.9-0.4c4.7-5.8,7.1-11.1,7.1-15.7C285.2,100.7,282.7,95.5,277.9,90.6z"/>
	<path class="st1" d="M56.4,66.1c1.8,0,2.9,1.1,3.2,3.3H63c-0.3-4.4-2.5-6.6-6.7-6.6H53c-1.9,0-3.5,0.7-4.8,2c-1.3,1.3-2,2.9-2,4.7
		c0,1.6,0.3,2.7,1,3.6c0.7,0.8,1.7,1.6,3.2,2.5l2.9,1.7c0.8,0.5,1.5,1,2.1,1.5c0.6,0.5,0.9,1,0.9,1.5c0,1-0.3,1.7-0.9,2.1
		c-0.6,0.5-1.5,0.7-2.6,0.7c-1.9,0-3-1.1-3.2-3.3h-3.4c0,4.4,2.2,6.6,6.7,6.6h3.3c1.9,0,3.5-0.7,4.8-2c1.3-1.3,2-2.9,2-4.8
		c0-1.3-0.2-2.4-0.7-3.2c-0.5-0.8-1.4-1.6-2.7-2.4l-3.3-1.8c-1-0.6-1.8-1.1-2.4-1.7c-0.6-0.5-0.9-1.1-0.9-1.6c0-0.9,0.3-1.5,0.8-2
		C54.3,66.3,55.2,66.1,56.4,66.1z"/>
	<path class="st1" d="M73,67.1c0.7-0.7,1.5-1,2.4-1c1.9,0,3,1.1,3.3,3.3H82c-0.3-4.4-2.4-6.6-6.5-6.6h-3.2c-2,0-3.7,0.6-5,1.9
		c-1.4,1.3-2,2.9-2,5v9.6c0,2,0.7,3.7,2,5c1.3,1.3,3,2,5.1,2h3.3c2,0,3.5-0.6,4.6-1.7c1.1-1.1,1.7-2.8,1.8-4.9h-3.4
		c-0.3,2.2-1.4,3.3-3.3,3.3c-1,0-1.8-0.3-2.4-1c-0.7-0.7-1-1.5-1-2.6v-9.9C72,68.6,72.3,67.7,73,67.1z"/>
	<path class="st1" d="M97.4,62.8H94c-0.9,0-1.5,0.2-2.1,0.7c-0.5,0.5-1,1.4-1.3,2.8V56.2h-6.7v30.2h6.7V69.4c0-0.9,0.3-1.7,1-2.3
		c0.7-0.7,1.5-1,2.4-1c0.9,0,1.7,0.3,2.4,1c0.7,0.7,1,1.5,1,2.6v16.7h6.7V69.7c0-1.9-0.6-3.5-1.9-4.9
		C100.9,63.4,99.3,62.8,97.4,62.8z"/>
	<path class="st1" d="M120.1,79.5c0,1-0.3,1.8-1,2.5c-0.7,0.7-1.4,1-2.3,1c-1,0-1.8-0.3-2.5-1c-0.7-0.7-1-1.5-1-2.6V62.8h-6.7v16.7
		c0,2,0.7,3.6,2,4.9c1.3,1.3,2.9,2,4.7,2h3.4c1,0,1.8-0.3,2.3-0.8c0.5-0.6,0.9-1.4,1.1-2.6v3.5h6.7V62.8h-6.7V79.5z"/>
	<rect x="129.5" y="56.2" class="st1" width="6.7" height="30.2"/>
	<path class="st1" d="M151.8,62.8h-6.4c-2,0-3.7,0.7-5,2c-1.3,1.4-1.9,3-1.9,5v9.6c0,2,0.7,3.7,2,5c1.3,1.3,3,2,4.9,2h6.5
		c4,0,6.3-2.2,6.9-6.6h-3.4c0,2.2-1.1,3.3-3.4,3.3h-3.2c-1.1,0-2-0.3-2.6-1c-0.7-0.7-1-1.5-1-2.6v-3.2h13.5v-6.6c0-2-0.7-3.6-2-4.9
		C155.4,63.4,153.7,62.8,151.8,62.8z M151.9,72.9h-6.8v-3.3c0-1,0.3-1.8,1-2.5c0.7-0.7,1.5-1,2.4-1c0.9,0,1.7,0.3,2.4,1
		c0.7,0.7,1,1.5,1,2.6V72.9z"/>
	<path class="st1" d="M174.6,62.8h-3.4c-0.8,0-1.4,0.3-2,0.8c-0.6,0.5-1,1.4-1.4,2.7v-3.5h-6.7v23.6h6.7V69.5c0-0.9,0.3-1.7,1-2.4
		c0.7-0.7,1.5-1,2.4-1c0.9,0,1.7,0.3,2.4,1c0.7,0.7,1,1.5,1,2.6v16.7h6.7V69.7c0-1.9-0.6-3.6-1.9-4.9
		C178.1,63.4,176.5,62.8,174.6,62.8z"/>
</g>
<g>
	<path class="st2" d="M244.3,128.2c-21.6-5-33.1-20.4-33.3-44.5l0-81.6c0-0.5-0.5-1-1.1-1c-7.8-0.1-16.1-0.5-24.5-1.2
		c-0.3,0-0.6,0.1-0.8,0.3c-0.2,0.2-0.4,0.4-0.4,0.7v1.9c0,0.4,0.3,0.8,0.8,1c4.1,0.9,7.3,2.3,9.5,4c2.1,1.8,3.4,3.8,4.1,6.1
		c0.7,2.4,1.1,7,1.1,13.6v56.3c0.5,29.6,13.7,43.4,44.2,46.4c0,0,0.1,0,0.1,0c0.5,0,1-0.3,1.1-0.8
		C245.2,128.8,244.8,128.3,244.3,128.2z"/>
	<path class="st2" d="M13.5,27.6h-3.4c-2,0-3.1,1-3.4,3.1V21H0v30.2h12.8c2.4,0,4.2-0.7,5.5-2c1.3-1.3,1.9-3,1.9-4.9V34.2
		c0-1.8-0.7-3.4-2-4.7C16.9,28.2,15.3,27.6,13.5,27.6z M13.5,44.3c0,1-0.3,1.9-0.9,2.6c-0.6,0.7-1.4,1-2.5,1H6.7V34.4
		c0-1,0.3-1.8,1-2.4c0.7-0.7,1.5-1,2.4-1c1,0,1.8,0.3,2.5,1c0.7,0.7,1,1.5,1,2.6V44.3z"/>
	<path class="st2" d="M36.1,27.6h-6.4c-2,0-3.7,0.7-5,2c-1.3,1.4-1.9,3-1.9,5v9.6c0,2,0.7,3.7,2,5c1.3,1.3,3,2,4.9,2h6.5
		c4,0,6.3-2.2,6.9-6.6h-3.4c0,2.2-1.1,3.3-3.4,3.3H33c-1.1,0-2-0.3-2.6-1c-0.7-0.7-1-1.5-1-2.6v-3.2h13.5v-6.6c0-2-0.7-3.6-2-4.9
		C39.6,28.2,38,27.6,36.1,27.6z M36.2,37.7h-6.8v-3.3c0-1,0.3-1.8,1-2.5c0.7-0.7,1.5-1,2.4-1c0.9,0,1.7,0.3,2.4,1
		c0.7,0.7,1,1.5,1,2.6V37.7z"/>
	<path class="st2" d="M86.7,22.6c-1.3,1.2-1.9,2.7-1.9,4.5v0.3v3.3v20.2h6.7V30.7h3.5v-3.3h-3.5v-0.3c0-0.8,0.3-1.5,0.9-2.1
		c0.6-0.6,1.4-0.9,2.3-0.9h3.4v-3.3h-6.7C89.5,20.8,88,21.4,86.7,22.6z"/>
	<rect x="100.3" y="21" class="st2" width="6.7" height="30.2"/>
	<rect x="109.8" y="27.6" class="st2" width="6.7" height="23.6"/>
	<rect x="109.8" y="20.9" class="st2" width="6.7" height="4.8"/>
	<path class="st2" d="M127,31.9c0.7-0.7,1.5-1,2.4-1c1.9,0,3,1.1,3.3,3.3h3.4c-0.3-4.4-2.4-6.6-6.5-6.6h-3.2c-2,0-3.7,0.6-5,1.9
		c-1.4,1.3-2,2.9-2,5v9.6c0,2,0.7,3.7,2,5c1.3,1.3,3,2,5.1,2h3.3c2,0,3.5-0.6,4.6-1.7c1.1-1.1,1.7-2.8,1.8-4.9h-3.4
		c-0.3,2.2-1.4,3.3-3.3,3.3c-1,0-1.8-0.3-2.4-1c-0.7-0.7-1-1.5-1-2.6v-9.9C126,33.4,126.3,32.6,127,31.9z"/>
	<path class="st2" d="M152.1,27.6h-3.4c-0.9,0-1.5,0.2-2.1,0.7c-0.5,0.5-0.9,1.4-1.3,2.8V21h-6.7v30.2h6.7V34.2c0-0.9,0.3-1.7,1-2.3
		c0.7-0.7,1.5-1,2.4-1c0.9,0,1.7,0.3,2.4,1c0.7,0.7,1,1.5,1,2.6v16.7h6.7V34.5c0-1.9-0.6-3.5-1.9-4.9
		C155.6,28.3,154,27.6,152.1,27.6z"/>
	<path class="st2" d="M174.5,27.6H168c-2,0-3.7,0.7-5,2c-1.3,1.4-1.9,3-1.9,5v9.6c0,2,0.7,3.7,2,5c1.3,1.3,3,2,4.9,2h6.5
		c4,0,6.3-2.2,6.9-6.6H178c0,2.2-1.1,3.3-3.4,3.3h-3.2c-1.1,0-2-0.3-2.6-1c-0.7-0.7-1-1.5-1-2.6v-3.2h13.5v-6.6c0-2-0.7-3.6-2-4.9
		C178,28.2,176.4,27.6,174.5,27.6z M174.6,37.7h-6.8v-3.3c0-1,0.3-1.8,1-2.5c0.7-0.7,1.5-1,2.4-1c0.9,0,1.7,0.3,2.4,1
		c0.7,0.7,1,1.5,1,2.6V37.7z"/>
	<path class="st2" d="M51.9,34.3v-6.7h-6.7v23.6h6.7V37.9c0-1,0.3-1.9,1-2.6c0.7-0.7,1.5-1,2.6-1h4.1v-6.7h-1
		C54.7,27.6,52.4,29.8,51.9,34.3z"/>
	<path class="st2" d="M75.1,44.3c0,1-0.3,1.8-1,2.5c-0.7,0.7-1.4,1-2.3,1c-1,0-1.8-0.3-2.5-1c-0.7-0.7-1-1.5-1-2.6V27.6h-6.7v16.7
		c0,2,0.7,3.6,2,4.9c1.3,1.3,2.9,2,4.7,2h3.4c1,0,1.8-0.3,2.3-0.8c0.5-0.6,0.9-1.4,1.1-2.6v3.5h6.7V27.6h-6.7V44.3z"/>
</g>
</svg>
